<svg width="186" height="187" viewBox="0 0 186 187" fill="none" xmlns="http://www.w3.org/2000/svg">
<path d="M185.999 93.1881C185.804 144.671 144.75 187.34 92.8891 186.998C41.028 186.656 -0.22552 144.209 0.000927801 92.3303C0.222936 41.234 42.0715 -0.177218 93.2976 0.000570328C144.608 0.182803 186.195 41.9896 185.999 93.1926V93.1881ZM175.037 92.7348C174.974 47.4388 138.174 10.6501 92.938 10.6678C47.6661 10.6856 10.9948 47.4877 11.0436 92.8548C11.0925 138.013 48.0213 174.828 92.8891 174.775C138.379 174.717 175.099 137.991 175.037 92.7392V92.7348Z" fill="black"/>
<path d="M175 92.9756C175.062 138.174 138.149 174.947 92.6625 175C47.7972 175.053 11.0489 138.196 11 93.091C10.9512 47.7769 47.6241 11.0222 92.8979 11C138.136 10.9822 174.938 47.7281 175 92.9711V92.9756ZM172.171 93.2597C172.456 50.0677 136.968 14.2364 93.5328 13.8546C50.1462 13.4773 14.1083 48.8379 13.7131 92.0388C13.3135 135.923 47.815 171.155 90.6732 172.341C135.61 173.579 172.003 137.699 172.171 93.2597Z" fill="white"/>
<path d="M171.998 93.1475C171.83 137.441 135.539 173.204 90.7385 171.969C48.0056 170.788 13.605 135.671 14.0034 91.9306C14.3975 48.8715 50.3299 13.6269 93.5897 14.003C136.898 14.3791 172.286 50.0972 171.998 93.1475ZM105.304 103.015C105.304 101.396 105.477 99.8469 105.273 98.3512C104.632 93.6033 106.062 89.6385 109.147 86.0233C111.144 83.6825 112.738 81.001 114.491 78.4567C114.903 77.8549 115.527 77.2 115.541 76.5584C115.634 71.9919 115.589 67.4253 115.589 62.3853C113.495 65.2969 111.733 67.8943 109.812 70.3679C107.943 72.7706 104.866 73.1291 102.878 71.1378C101.993 70.2528 101.537 68.9475 100.851 67.7704H97.3928V74.5981C97.1271 74.6512 96.8615 74.7043 96.5959 74.7574C96.4498 74.1955 96.1487 73.6202 96.1885 73.0715C96.3966 69.9564 95.6573 67.1244 94.0546 64.4429C91.8807 60.8056 88.5558 58.8807 84.3896 57.8055C85.4876 56.0621 86.4926 54.4646 87.4711 52.9203C93.1514 54.1239 96.5117 52.8894 98.0746 48.8848C93.0495 47.075 88.0511 45.19 82.9729 43.5527C82.2512 43.3226 80.7813 44.066 80.2589 44.7917C76.7613 49.6105 73.4275 54.5487 70.045 59.4516C68.8806 61.1375 68.8363 62.8543 69.89 64.6199C71.0943 66.6421 72.2764 68.6776 73.4496 70.713C75.9821 75.107 79.4841 79.2399 80.7548 83.9746C82.0298 88.7137 81.0735 94.0458 81.0912 99.1212C81.0957 100.409 81.0912 101.696 81.0912 103.015H105.318H105.304ZM108.776 43.9466C108.253 44.3094 107.155 44.8802 106.305 45.7077C105.477 46.5175 104.897 47.5839 104.215 48.5396C101.444 52.4336 98.6413 56.301 95.9273 60.2348C94.6124 62.1419 95.0551 64.3632 96.8349 65.7128C98.3181 66.8412 100.62 66.7217 101.798 65.1199C105.588 59.9693 109.351 54.7965 112.893 49.4777C114.513 47.044 112.384 43.8713 108.78 43.9466H108.776ZM95.8786 130.773C95.8786 126.852 95.8831 123.118 95.8786 119.383C95.8742 116.418 94.4353 114.993 91.4557 114.989C89.5431 114.989 87.6216 114.896 85.7178 115.033C84.9253 115.091 83.9026 115.418 83.451 115.989C82.7426 116.887 82.0697 118.078 82.021 119.175C81.8527 123.029 81.9546 126.892 81.9546 130.702H86.0145C86.0897 129.233 86.1561 127.941 86.227 126.485C87.2851 126.485 88.1573 126.485 89.0295 126.485C89.9017 126.485 90.7252 126.485 91.7966 126.485V130.782H95.8786V130.773ZM62.3325 123.073H62.3458C62.3458 121.972 62.3458 120.874 62.3458 119.772C62.3369 116.339 61.0132 114.985 57.6528 114.98C56.0368 114.98 54.4252 114.98 52.8093 114.98C49.8606 114.985 48.3996 116.432 48.3952 119.356C48.3908 121.777 48.3908 124.197 48.3952 126.618C48.3952 129.255 49.9315 130.848 52.5082 130.87C54.4872 130.888 56.4707 130.897 58.4497 130.87C60.6147 130.839 62.2838 129.184 62.3281 127.034C62.3591 125.715 62.3325 124.396 62.3325 123.073ZM137.673 115.467C138.341 116.741 138.828 117.989 139.581 119.056C142.304 122.918 142.3 122.87 139.608 126.733C138.837 127.839 138.359 129.144 137.73 130.383C142.583 132.317 143.061 127.963 145.279 126.043C146.227 127.401 146.886 128.928 148.033 129.83C149.069 130.644 150.641 130.773 151.978 131.202C152.15 130.963 152.319 130.724 152.491 130.485C152.212 129.636 152.19 128.503 151.615 127.981C147.763 124.489 148.104 121.193 151.659 117.741C152.204 117.215 152.199 116.117 152.425 115.365C147.741 113.511 147.285 117.94 145.124 119.675C143.083 117.719 142.556 113.613 137.673 115.462V115.467ZM94.1741 45.9909C95.5997 46.5528 96.8039 47.0661 98.0348 47.5086C99.7171 48.1149 99.9297 49.2122 99.084 50.6149C97.499 53.2522 95.1437 54.7257 92.0667 54.9381C90.7783 55.0266 89.4811 54.9514 88.0643 54.9514C87.4888 56.3408 87.688 57.509 89.3129 58.2524C89.9105 58.5223 90.5215 58.8498 90.9864 59.3011C92.4873 60.7481 93.8996 60.2967 94.9223 58.9073C98.5837 53.9425 102.192 48.9335 105.681 43.8492C106.947 42.004 106.265 39.6278 104.499 38.3977C102.75 37.1764 100.306 37.3888 98.9379 39.1455C97.2777 41.2783 95.8344 43.5749 94.1652 45.9909H94.1741ZM78.6429 119.914C79.1388 116.98 77.5803 115.02 74.9948 114.985C73.3035 114.962 71.6123 114.98 69.921 114.985C66.7997 114.993 65.3475 116.409 65.3387 119.471C65.3343 121.75 65.3387 124.025 65.3387 126.304C65.3475 129.397 66.7953 130.866 69.8502 130.879C71.6167 130.888 73.3788 130.91 75.1453 130.87C77.7087 130.808 79.2539 128.667 78.5322 125.963C77.5671 126.065 76.2433 125.808 75.6323 126.348C73.7595 128.003 71.7805 127.043 69.7838 127.277V118.232C72.9095 118.83 75.774 119.374 78.6429 119.918V119.914ZM127.353 114.989C123.771 114.989 120.433 114.737 117.17 115.122C115.988 115.263 114.15 116.865 114.057 117.923C113.699 122.135 113.911 126.392 113.911 130.68H118.237V124.618H126.06V121.064H118.17C118.237 120.078 118.286 119.392 118.347 118.489H127.353V114.989ZM106.402 70.9122C106.77 70.6953 107.81 70.4166 108.315 69.744C111.002 66.1509 113.601 62.4915 116.125 58.779C117.134 57.2966 116.789 55.7479 115.372 54.6682C113.907 53.5487 112.162 53.4779 111.007 54.9647C108.209 58.5621 105.499 62.2437 102.976 66.0447C101.568 68.1643 103.268 70.8281 106.398 70.921L106.402 70.9122ZM111.6 127.268H103.14V115.162H98.8981C98.8981 119.44 98.6812 123.565 99.0353 127.644C99.1327 128.786 100.802 130.556 101.926 130.706C105.079 131.127 108.328 130.852 111.6 130.852V127.268ZM84.7128 42.2961C91.7656 46.0617 92.9123 45.7785 96.8659 39.4597C96.9058 39.3977 96.9501 39.3402 96.9855 39.2738C98.1277 37.3268 97.7071 35.0878 95.9495 33.7825C94.3202 32.57 91.9294 32.6718 90.5702 34.3444C88.5026 36.8888 86.6653 39.619 84.7128 42.2916V42.2961ZM46.0177 130.861V127.255H37.5614V115.184H33.4041C33.4041 119.423 33.1783 123.489 33.5414 127.498C33.6521 128.697 35.3035 130.543 36.4546 130.711C39.536 131.162 42.7237 130.866 46.0133 130.866L46.0177 130.861ZM136.385 130.733C133.967 125.467 134.1 120.348 136.305 115.135H128.818C131.143 120.387 131.032 125.503 128.871 130.733H136.385Z" fill="black"/>
<path d="M105.6 103H81.0947C81.0947 101.67 81.0947 100.372 81.0947 99.0737C81.0768 93.956 82.0441 88.5751 80.7543 83.8011C79.4691 79.027 75.9268 74.8597 73.3652 70.4292C72.1785 68.3723 70.9828 66.3199 69.7647 64.2854C68.6989 62.5051 68.7436 60.774 69.9214 59.074C73.3428 54.1304 76.7194 49.1511 80.2528 44.2922C80.7857 43.5605 82.2725 42.8109 82.998 43.0429C88.1345 44.6893 93.1905 46.5945 98.2733 48.4194C96.697 52.4572 93.298 53.7021 87.5479 52.4885C86.5627 54.0501 85.5461 55.6563 84.431 57.4143C88.6451 58.4985 92.0082 60.4393 94.2071 64.1069C95.8282 66.8107 96.5761 69.6662 96.3656 72.8073C96.3298 73.3606 96.6343 73.9406 96.7776 74.5072C97.0463 74.4537 97.315 74.4002 97.5837 74.3466V67.4621H101.081C101.775 68.649 102.237 69.9696 103.132 70.8575C105.147 72.8653 108.26 72.4995 110.145 70.0812C112.089 67.5871 113.867 64.968 115.989 62.0322C115.989 67.1141 116.034 71.7186 115.94 76.3232C115.927 76.9701 115.295 77.6349 114.879 78.2373C113.105 80.8028 111.493 83.5066 109.473 85.8669C106.352 89.5166 104.906 93.5143 105.555 98.2973C105.761 99.8054 105.586 101.367 105.586 103H105.6Z" fill="white"/>
<path d="M109.152 44.0013C112.898 43.9278 115.112 47.0282 113.428 49.4066C109.746 54.6043 105.834 59.6593 101.894 64.6927C100.67 66.258 98.2813 66.3748 96.735 65.2721C94.8848 63.9532 94.4246 61.7825 95.7915 59.9187C98.6127 56.0745 101.526 52.2951 104.407 48.4898C105.116 47.5515 105.719 46.5137 106.579 45.7223C107.463 44.9137 108.604 44.3559 109.147 44.0013H109.152Z" fill="white"/>
<path d="M95.9961 131H91.9019V126.655C90.8273 126.655 89.9747 126.655 89.1266 126.655C88.2784 126.655 87.377 126.655 86.3157 126.655C86.2402 128.127 86.1781 129.434 86.1026 130.919H82.0306C82.0306 127.067 81.9285 123.161 82.0972 119.263C82.1461 118.154 82.821 116.95 83.5315 116.042C83.9845 115.465 85.0102 115.134 85.8051 115.075C87.7145 114.941 89.6417 115.026 91.56 115.031C94.5484 115.035 95.9916 116.476 95.9961 119.474C96.0049 123.25 95.9961 127.027 95.9961 130.991V131ZM86.3157 118.789V122.883H91.6976V118.789H86.3157Z" fill="white"/>
<path d="M61.9867 123.141C61.9867 124.467 62.0089 125.798 61.9822 127.124C61.9334 129.287 60.2628 130.952 58.0901 130.983C56.1041 131.01 54.1136 131.001 52.1276 130.983C49.5417 130.961 48.0044 129.363 48 126.706C48 124.271 48 121.837 48 119.402C48.0044 116.46 49.4706 115.004 52.4297 115C54.0514 115 55.6687 115 57.2904 115C60.6582 115 61.9911 116.362 62 119.82C62 120.929 62 122.032 62 123.141H61.9867ZM52.3453 118.721V127.213H57.6147V118.721H52.3453Z" fill="white"/>
<path d="M138 115.533C142.948 113.715 143.477 117.746 145.543 119.673C147.73 117.968 148.191 113.615 152.933 115.437C152.704 116.177 152.709 117.251 152.157 117.772C148.559 121.164 148.214 124.408 152.113 127.834C152.695 128.348 152.718 129.461 153 130.296C152.825 130.53 152.655 130.765 152.48 131C151.127 130.578 149.536 130.452 148.487 129.652C147.322 128.765 146.654 127.265 145.699 125.93C143.454 127.817 142.97 132.096 138.058 130.196C138.69 128.978 139.179 127.695 139.958 126.608C142.683 122.808 142.688 122.856 139.932 119.064C139.17 118.016 138.677 116.79 138 115.537V115.533Z" fill="white"/>
<path d="M94.204 45.5268C95.8227 43.0641 97.2225 40.7186 98.8326 38.5491C100.159 36.7585 102.525 36.542 104.225 37.7868C105.934 39.0407 106.596 41.4629 105.372 43.3437C101.988 48.5308 98.4891 53.6366 94.9382 58.6928C93.9464 60.1046 92.5767 60.5692 91.1211 59.0943C90.6703 58.6387 90.0735 58.3049 89.4981 58.0253C87.918 57.2675 87.7248 56.0768 88.2873 54.6605C89.6613 54.6605 90.9236 54.7372 92.1688 54.6469C95.1529 54.4304 97.4329 52.9285 98.9743 50.2402C99.7901 48.8104 99.5883 47.6918 97.9567 47.0739C96.763 46.6228 95.5952 46.0996 94.2126 45.5268H94.204Z" fill="white"/>
<path d="M78.9042 119.968C75.9117 119.421 72.9145 118.87 69.6491 118.274V127.364C71.7351 127.133 73.8026 128.093 75.7591 126.43C76.402 125.883 77.7803 126.145 78.7886 126.043C79.5425 128.76 77.9283 130.913 75.2503 130.975C73.4094 131.019 71.564 130.993 69.7185 130.984C66.5271 130.971 65.0146 129.494 65.0053 126.386C65.0007 124.095 64.9961 121.81 65.0053 119.519C65.0146 116.446 66.5317 115.019 69.7925 115.01C71.5593 115.01 73.3262 114.988 75.093 115.01C77.7942 115.045 79.4223 117.011 78.9042 119.964V119.968Z" fill="white"/>
<path d="M128 115.084V118.634H118.664C118.6 119.55 118.549 120.246 118.48 121.247H126.66V124.851H118.549V131H114.065C114.065 126.655 113.844 122.333 114.216 118.06C114.308 116.987 116.218 115.358 117.443 115.219C120.826 114.824 124.287 115.084 128 115.084Z" fill="white"/>
<path d="M106.858 71C103.778 70.9075 102.109 68.2568 103.49 66.1476C105.969 62.3696 108.636 58.7061 111.394 55.1219C112.532 53.6424 114.244 53.7129 115.691 54.8269C117.085 55.9013 117.421 57.4424 116.431 58.9175C113.948 62.6118 111.386 66.2533 108.745 69.8287C108.248 70.5024 107.229 70.7798 106.863 70.9912L106.858 71Z" fill="white"/>
<path d="M112 130.911C108.669 130.911 105.364 131.189 102.15 130.763C101.005 130.61 99.3104 128.82 99.2067 127.658C98.8461 123.525 99.067 119.339 99.067 115H103.385V127.276H112V130.911Z" fill="white"/>
<path d="M85 41.7043C86.9657 39.2094 88.8156 36.6608 90.8972 34.2856C92.2657 32.7243 94.6682 32.6293 96.313 33.7611C98.0827 34.9796 98.5106 37.0697 97.3561 38.8872C97.3204 38.945 97.2758 39.0028 97.2357 39.0607C93.2597 44.9592 92.1007 45.2236 85 41.7084V41.7043Z" fill="white"/>
<path d="M45.9955 130.903C42.6242 130.903 39.3573 131.204 36.1992 130.746C35.0241 130.576 33.3271 128.704 33.2136 127.488C32.837 123.423 33.073 119.303 33.073 115H37.3336V127.241H46V130.899L45.9955 130.903Z" fill="white"/>
<path d="M137 131H129.056C131.341 125.635 131.458 120.388 129 115H136.916C134.585 120.347 134.444 125.599 137 131Z" fill="white"/>
<path d="M86 119H92V123H86V119Z" fill="black"/>
<path d="M53 119H58V127H53V119Z" fill="black"/>
</svg>
